<?xml version="1.0" standalone="no"?><!DOCTYPE svg PUBLIC "-//W3C//DTD SVG 1.1//EN" "http://www.w3.org/Graphics/SVG/1.1/DTD/svg11.dtd"><svg t="1604490604962" class="icon" viewBox="0 0 1024 1024" version="1.1" xmlns="http://www.w3.org/2000/svg" p-id="1137" xmlns:xlink="http://www.w3.org/1999/xlink" width="200" height="200"><defs><style type="text/css"></style></defs><path d="M594.68 140.37c-27.08 0-50.68 8.6-65.29 22.93-78.9 9.75-151.33 37.29-205.17 78.19-60.78 46.17-94.25 106.44-94.25 169.7v135.8L98.32 659.06c-13.65 11.62-23.71 26.6-29.12 43.33-5.07 15.7-5.97 32.63-2.59 48.96 3.37 16.33 10.91 31.53 21.78 43.93 11.59 13.22 26.77 22.99 43.91 28.26l112.69 34.6c55.06 16.9 112.14 25.48 169.67 25.48 67.63 0 134.16-11.72 197.72-34.84 64.36-23.4 123.52-57.72 175.84-101.99l35.89-30.37c36.91-10.77 66.84-23.95 89.05-39.23 13.7-9.42 24.52-19.76 32.16-30.72 9.33-13.4 14.06-27.71 14.06-42.55V411.2c0-63.26-33.47-123.53-94.25-169.7-53.84-40.9-126.27-68.44-205.18-78.19-14.59-14.34-38.19-22.94-65.27-22.94z" fill="#3B394D" p-id="1138"></path><path d="M671.97 720.49c-91.71 77.59-204.82 121.68-321.35 128.58a546.293 546.293 0 0 1-96.59-20.36l-112.69-34.6c-49.05-15.06-62.12-78.34-23.06-111.6l142.47-121.29v42.72c0 61.06 149.51 110.55 333.92 110.55 30.91 0 60.84-1.4 89.25-3.99l-11.95 9.99z" fill="#B8E5FA" p-id="1139"></path><path d="M683.93 710.5c-82.22 72.75-185.74 121.12-294.82 134.92l63.15-141.45c69.01 11.16 158.58 13.56 231.67 6.53z" fill="#46AFE4" p-id="1140"></path><path d="M594.68 190.1c28.97 0 57.07 2.44 83.87 7.03l-9.48 21.23-129.1 289.14c6 0.34 12.05 0.62 18.16 0.84v102.75c-21.5-0.78-42.4-2.23-62.48-4.29l-3.63 8.13-26.66 59.7-13.1 29.33c-113.19-17.69-191.5-55.83-191.5-100.02V411.2c0-122.11 149.51-221.1 333.92-221.1z" fill="#FDA2B8" p-id="1141"></path><path d="M746.65 411.2v259.92c-2.41 0.43-4.84 0.84-7.28 1.25-44.16 7.37-93.43 11.33-144.69 11.33-45.42 0-89.22-3.2-129.32-9.07l30.29-67.83c20.08 2.06 40.98 3.51 62.48 4.29V508.34c-6.11-0.22-12.16-0.5-18.16-0.84l129.1-289.14c46.3 37.89 77.58 110.05 77.58 192.84z" fill="#DE3C5B" p-id="1142"></path><path d="M928.6 552.37v51.57c0 42.94-73.93 80.16-181.95 98.48v-31.3c27.11-4.82 52.18-10.95 74.46-18.24C928.6 617.66 928.6 552.37 928.6 552.37z" fill="#3B394D" p-id="1143"></path><path d="M558.13 508.33v102.75c-82.55-2.98-156.06-15.92-209.33-35.11V473.23c53.27 19.19 126.78 32.13 209.33 35.1z" fill="#FFFFFF" p-id="1144"></path><path d="M558.13 508.34v102.75c-21.51-0.78-42.4-2.23-62.48-4.29l44.32-99.29c6 0.33 12.05 0.61 18.16 0.83z" fill="#FDA2B8" p-id="1145"></path><path d="M678.55 197.13a490.43 490.43 0 0 0-35.1-4.69v0.03c-10.44 3-71.61 17.32-88.69 23.15 0 16.47 24.36 29.83 54.42 29.83 30.05 0 54.42-13.36 54.42-29.83 0-0.53-0.03-1.06-0.08-1.59 1.87 1.39 3.72 2.82 5.55 4.32l9.48-21.22z" fill="#DE3C5B" p-id="1146"></path><path d="M544.62 198.61a50.06 27.44 0 1 0 100.12 0 50.06 27.44 0 1 0-100.12 0Z" fill="#FDA2B8" p-id="1147"></path><path d="M928.6 552.37v51.57c0 61.06-149.5 110.55-333.92 110.55-184.41 0-333.92-49.5-333.92-110.55V565.7s0 52.65 107.48 87.18c60.21 19.34 140.45 30.83 226.44 30.83s166.35-11.14 226.44-30.83C928.6 617.66 928.6 552.37 928.6 552.37z" fill="#FFFFFF" p-id="1148"></path><path d="M928.6 552.37v51.57c0 34-46.37 64.42-119.31 84.71-58.03 16.13-132.89 25.85-214.61 25.85-50.93 0-99.22-3.78-142.42-10.53l13.1-29.34c40.11 5.87 83.91 9.07 129.32 9.07 51.26 0 100.54-3.96 144.7-11.33 29.91-4.99 57.47-11.55 81.74-19.49C928.6 617.66 928.6 552.37 928.6 552.37z" fill="#B8E5FA" p-id="1149"></path><path d="M928.6 552.37v51.57c0 34-46.37 64.42-119.31 84.71-19.16 5.33-40.17 9.96-62.64 13.77v-31.3c27.11-4.81 52.18-10.94 74.46-18.24C928.6 617.66 928.6 552.37 928.6 552.37z" fill="#46AFE4" p-id="1150"></path></svg>